<svg width="20" height="16" viewBox="0 0 20 16" fill="none" xmlns="http://www.w3.org/2000/svg">
<path fill-rule="evenodd" clip-rule="evenodd" d="M5.7587 3.0076e-07H14.2413C15.0463 -9.69924e-06 15.7106 -1.96993e-05 16.2518 0.0441903C16.8139 0.0901203 17.3306 0.18868 17.816 0.43597C18.5686 0.81947 19.1805 1.43139 19.564 2.18404C19.8113 2.66937 19.9099 3.18608 19.9558 3.74817C20 4.28936 20 4.95372 20 5.75868V10.2413C20 11.0463 20 11.7106 19.9558 12.2518C19.9099 12.8139 19.8113 13.3306 19.564 13.816C19.1805 14.5686 18.5686 15.1805 17.816 15.564C17.3306 15.8113 16.8139 15.9099 16.2518 15.9558C15.7106 16 15.0463 16 14.2413 16H5.75872C4.95374 16 4.28938 16 3.74817 15.9558C3.18608 15.9099 2.66937 15.8113 2.18404 15.564C1.43139 15.1805 0.81947 14.5686 0.43597 13.816C0.18868 13.3306 0.0901203 12.8139 0.0441903 12.2518C-1.96993e-05 11.7106 -9.69924e-06 11.0463 3.0076e-07 10.2413V5.7587C-9.69924e-06 4.95373 -1.96993e-05 4.28937 0.0441903 3.74818C0.0901203 3.18608 0.18868 2.66937 0.43597 2.18404C0.81947 1.43139 1.43139 0.81947 2.18404 0.43597C2.66937 0.18868 3.18608 0.0901203 3.74817 0.0441903C4.28937 -1.96993e-05 4.95373 -9.69924e-06 5.7587 3.0076e-07Z" fill="#75718B"/>
</svg>
