<svg width="16" height="18" viewBox="0 0 16 18" fill="none" xmlns="http://www.w3.org/2000/svg">
<path fill-rule="evenodd" clip-rule="evenodd" d="M8.00011 0C5.54551 0 3.55566 2.01472 3.55566 4.5V5.55398C1.68317 5.77142 0.236227 7.28098 0.0988178 9.20583C0.0413511 10.011 0 10.8764 0 11.6999C0 12.5234 0.0413511 13.3888 0.0988267 14.194C0.241218 16.1887 1.79001 17.7375 3.76134 17.8644C4.94025 17.9402 6.38178 17.9999 8 17.9999C9.61822 17.9999 11.0597 17.9402 12.2387 17.8644C14.21 17.7375 15.7588 16.1887 15.9012 14.194C15.9587 13.3888 16 12.5234 16 11.6999C16 10.8764 15.9587 10.011 15.9012 9.20583C15.7638 7.28105 14.3169 5.77154 12.4446 5.554V4.5C12.4446 2.01472 10.4547 0 8.00011 0ZM10.6668 5.45347V4.5C10.6668 3.00884 9.47291 1.8 8.00011 1.8C6.52731 1.8 5.33344 3.00884 5.33344 4.5V5.45347C6.14873 5.42075 7.0435 5.39991 8 5.39991C8.95659 5.39991 9.85142 5.42075 10.6668 5.45347ZM8.88932 12.3592C9.4207 12.048 9.77821 11.4663 9.77821 10.8C9.77821 9.80587 8.9823 9.00001 8.00043 9.00001C7.01857 9.00001 6.22266 9.80587 6.22266 10.8C6.22266 11.4663 6.58017 12.048 7.11155 12.3592V13.5C7.11155 13.9971 7.5095 14.4 8.00043 14.4C8.49137 14.4 8.88932 13.9971 8.88932 13.5V12.3592Z" fill="#75718B"/>
</svg>
